<?xml version="1.0" encoding="utf-8"?>
<!-- Generator: Adobe Illustrator 19.0.0, SVG Export Plug-In . SVG Version: 6.00 Build 0)  -->
<svg version="1.1" id="Layer_1" xmlns="http://www.w3.org/2000/svg" xmlns:xlink="http://www.w3.org/1999/xlink" x="0px" y="0px"
	 viewBox="0 0 1200 1200" style="enable-background:new 0 0 1200 1200;" xml:space="preserve">
<style type="text/css">
	.st0{fill:#7C4DFF;}
	.st1{fill:#F7F7F7;}
	.st2{opacity:0.3;fill:#444444;}
</style>
<path id="XMLID_1_" class="st0" d="M321.1,983.5L128.8,650c-17.8-30.9-17.8-69,0-99.9l192.3-333.5c17.9-31,50.9-50,86.6-50h384.5
	c35.7,0,68.8,19.1,86.6,50L1071.2,550c17.8,30.9,17.8,69,0,99.9L878.9,983.5c-17.9,31-50.9,50-86.6,50H407.8
	C372,1033.5,339,1014.4,321.1,983.5z"/>
<path id="XMLID_2_" class="st1" d="M421.4,522.4H817c4.9,0,8.9-4,8.9-8.9v-74.1c0-49.3-40-89.3-89.3-89.3H499.1
	C430,350,374,406,374,475.1v0C374,501.2,395.2,522.4,421.4,522.4z"/>
<path id="XMLID_3_" class="st1" d="M460.2,850h236.4c71.4,0,129.3-57.9,129.3-129.3v0c0-23.8-19.3-43.1-43.1-43.1H382.6
	c-4.8,0-8.6,3.9-8.6,8.6v77.6C374,811.4,412.6,850,460.2,850z"/>
<path id="XMLID_4_" class="st1" d="M391.5,512.6l295,295c19.5,19.5,51.2,19.5,70.7,0l51.2-51.2c19.5-19.5,19.5-51.2,0-70.7l-295-295
	c-19.5-19.5-51.2-19.5-70.7,0l-51.2,51.2C372,461.4,372,493.1,391.5,512.6z"/>
<polygon id="XMLID_6_" class="st2" points="691.4,812.5 518.1,677.6 556.5,677.6 "/>
<polygon id="XMLID_5_" class="st2" points="508.6,385.8 645.2,522.4 691.4,522.4 "/>
</svg>
