<?xml version="1.0" encoding="utf-8"?>
<!-- Generator: Adobe Illustrator 19.1.0, SVG Export Plug-In . SVG Version: 6.00 Build 0)  -->
<svg version="1.1" xmlns="http://www.w3.org/2000/svg" xmlns:xlink="http://www.w3.org/1999/xlink" x="0px" y="0px"
	 viewBox="294 -204 1200 1200" style="enable-background:new 294 -204 1200 1200;" xml:space="preserve">
<style type="text/css">
	.st0{fill:#FFFFFF;}
	.st1{fill:#7C4DFF;}
	.st2{fill:#F7F7F7;}
	.st3{opacity:0.3;fill:#444444;enable-background:new    ;}
</style>
<g id="Layer_2">
	<path id="XMLID_7_" class="st0" d="M589.9,815.7L379.2,450.3c-19.5-33.8-19.5-75.6,0-109.4L589.9-24.4c19.6-34,55.8-54.8,94.9-54.8
		h421.2c39.1,0,75.4,20.9,94.9,54.8l210.8,365.2c19.5,33.8,19.5,75.6,0,109.4l-210.6,365.4c-19.6,34-55.8,54.8-94.9,54.8H684.9
		C645.6,870.4,609.5,849.5,589.9,815.7z"/>
</g>
<g id="Layer_1">
	<path id="XMLID_1_" class="st1" d="M616.5,779.1L424.2,445.6c-17.8-30.9-17.8-69,0-99.9L616.5,12.2c17.9-31,50.9-50,86.6-50h384.5
		c35.7,0,68.8,19.1,86.6,50l192.4,333.4c17.8,30.9,17.8,69,0,99.9l-192.3,333.6c-17.9,31-50.9,50-86.6,50H703.2
		C667.4,829.1,634.4,810,616.5,779.1z"/>
	<path id="XMLID_2_" class="st2" d="M715.4,318.4H1111c4.9,0,8.9-4,8.9-8.9v-74.1c0-49.3-40-89.3-89.3-89.3H793.1
		C724,146,668,202,668,271.1l0,0C668,297.2,689.2,318.4,715.4,318.4z"/>
	<path id="XMLID_3_" class="st2" d="M754.2,646h236.4c71.4,0,129.3-57.9,129.3-129.3l0,0c0-23.8-19.3-43.1-43.1-43.1H676.6
		c-4.8,0-8.6,3.9-8.6,8.6v77.6C668,607.4,706.6,646,754.2,646z"/>
	<path id="XMLID_4_" class="st2" d="M685.5,308.6l295,295c19.5,19.5,51.2,19.5,70.7,0l51.2-51.2c19.5-19.5,19.5-51.2,0-70.7
		l-295-295c-19.5-19.5-51.2-19.5-70.7,0l-51.2,51.2C666,257.4,666,289.1,685.5,308.6z"/>
	<polygon id="XMLID_6_" class="st3" points="985.4,608.5 812.1,473.6 850.5,473.6 	"/>
	<polygon id="XMLID_5_" class="st3" points="802.6,181.8 939.2,318.4 985.4,318.4 	"/>
</g>
</svg>
